<svg width="54" height="27" viewBox="0 0 54 27" fill="none" xmlns="http://www.w3.org/2000/svg">
<path d="M52 17.8545C36.7656 25.0092 5.4375 33.0384 2 7.91743C24.8125 -6.39196 44.8385 8.57988 52 17.8545Z" fill="#9ABFA2"/>
<path d="M52 17.8545L52.5362 18.9962L53.9592 18.3279L52.9984 17.0836L52 17.8545ZM2 7.91743L1.32975 6.8489L0.639902 7.28162L0.750305 8.08844L2 7.91743ZM51.4638 16.7128C43.9325 20.2498 32.4962 23.9603 22.6058 23.7283C17.6722 23.6126 13.2417 22.5187 9.8636 20.055C6.52211 17.6181 4.06971 13.7391 3.24969 7.74642L0.750305 8.08844C1.64903 14.6563 4.40172 19.194 8.37713 22.0932C12.3159 24.9658 17.3142 26.1276 22.5466 26.2503C32.9882 26.4953 44.8331 22.6139 52.5362 18.9962L51.4638 16.7128ZM2.67025 8.98596C13.7183 2.05595 24.0203 2.2331 32.4464 5.23036C40.93 8.24803 47.5391 14.1412 51.0016 18.6254L52.9984 17.0836C49.2994 12.2932 42.3148 6.06311 33.2919 2.85356C24.2115 -0.376398 13.0942 -0.530475 1.32975 6.8489L2.67025 8.98596Z" fill="#4D8F5C" fill-opacity="0.57"/>
</svg>
