<svg viewBox="0 0 38 23" fill="none" xmlns="http://www.w3.org/2000/svg">
<path d="M3.34463 16.397C12.1567 21.3113 30.8728 26.3591 35.2402 7.23626C24.5294 -3.78292 9.51365 8.7521 3.34463 16.397Z" fill="#9ABFA2"/>
<path d="M3.34463 16.397L1.78818 15.141L0.297873 16.9879L2.37053 18.1438L3.34463 16.397ZM35.2402 7.23626L37.19 7.68157L37.4321 6.62177L36.6744 5.84226L35.2402 7.23626ZM2.37053 18.1438C6.9573 20.7017 14.2462 23.3826 21.1212 22.824C24.6045 22.5409 28.0573 21.4175 30.9516 18.9474C33.8499 16.4739 36.0232 12.7905 37.19 7.68157L33.2904 6.79095C32.2735 11.2435 30.4695 14.1001 28.3549 15.9048C26.2362 17.713 23.6403 18.6061 20.7972 18.8371C15.0193 19.3066 8.54408 17.0066 4.31874 14.6503L2.37053 18.1438ZM36.6744 5.84226C33.674 2.75551 30.2832 1.24818 26.7742 0.950983C23.3138 0.657898 19.8857 1.55201 16.7497 3.00234C10.5112 5.88754 4.986 11.1782 1.78818 15.141L4.90109 17.653C7.87228 13.9709 12.9394 9.17161 18.4288 6.63287C21.1567 5.37123 23.8764 4.71987 26.4366 4.93671C28.9483 5.14944 31.451 6.20743 33.8061 8.63027L36.6744 5.84226Z" fill="#4D8F5C" fill-opacity="0.57"/>
</svg>
