<svg width="55" height="34" viewBox="0 0 55 34" fill="none" xmlns="http://www.w3.org/2000/svg">
<path d="M49.2216 28.6711C34.8337 13.9478 45.2253 -8.13732 4 10.7926C17.1458 38.6616 29.24 30.5992 49.2216 28.6711Z" fill="#9ABFA2"/>
<path d="M49.2216 28.6711L49.4615 31.1565L54.6522 30.6556L51.0075 26.9259L49.2216 28.6711ZM4 10.7926L2.95804 8.52348L0.665409 9.57622L1.74168 11.8579L4 10.7926ZM51.0075 26.9259C47.7359 23.5781 45.8334 19.779 44.1684 15.9979C42.5826 12.3968 41.0561 8.33859 38.5572 5.47134C37.2364 3.95584 35.6085 2.70732 33.5169 1.91392C31.444 1.12763 29.0499 0.838965 26.2561 1.03903C20.7443 1.43375 13.3285 3.76153 2.95804 8.52348L5.04196 13.0618C15.2841 8.35877 22.0289 6.34846 26.6128 6.02019C28.867 5.85876 30.5046 6.11239 31.7457 6.58318C32.9681 7.04687 33.9364 7.77025 34.7925 8.75248C36.6473 10.8807 37.7972 13.9212 39.598 18.0105C41.3194 21.9197 43.5134 26.4024 47.4358 30.4163L51.0075 26.9259ZM1.74168 11.8579C8.46709 26.1157 15.2935 31.9399 23.6259 33.3669C27.6124 34.0496 31.732 33.6801 35.9271 33.082C40.2381 32.4674 44.5314 31.6322 49.4615 31.1565L48.9818 26.1857C43.9211 26.674 39.2095 27.5696 35.2222 28.1381C31.1189 28.7231 27.6469 28.9889 24.4689 28.4446C18.4723 27.4177 12.6787 23.3385 6.25832 9.72739L1.74168 11.8579Z" fill="#4D8F5C" fill-opacity="0.57"/>
</svg>
