<svg width="34" viewBox="0 0 34 29" fill="none" xmlns="http://www.w3.org/2000/svg">
<mask id="path-1-inside-1_2_111" fill="white">
<path fill-rule="evenodd" clip-rule="evenodd" d="M1.55269 14.7068C0.571017 13.2115 0 11.4224 0 9.5C0 4.25329 4.25329 0 9.5 0C12.5485 0 15.2617 1.43593 17 3.66834C18.7383 1.43593 21.4515 0 24.5 0C29.7467 0 34 4.25329 34 9.5C34 11.6715 33.2714 13.6729 32.0453 15.273C29.7925 18.9322 16.7875 28.6591 16.7875 28.6591C16.7875 28.6591 2.53046 17.7859 1.55269 14.7068Z"/>
</mask>
<path d="M1.55269 14.7068L3.45889 14.1015L3.37561 13.8392L3.2246 13.6092L1.55269 14.7068ZM17 3.66834L15.422 4.8971L17 6.92365L18.578 4.8971L17 3.66834ZM32.0453 15.273L30.4578 14.0565L30.3957 14.1375L30.3422 14.2244L32.0453 15.273ZM16.7875 28.6591L15.5746 30.2494L16.7757 31.1654L17.9853 30.2607L16.7875 28.6591ZM3.2246 13.6092C2.45042 12.4299 2 11.0206 2 9.5H-2C-2 11.8242 -1.30838 13.993 -0.119212 15.8044L3.2246 13.6092ZM2 9.5C2 5.35786 5.35786 2 9.5 2V-2C3.14873 -2 -2 3.14873 -2 9.5H2ZM9.5 2C11.9057 2 14.0463 3.13039 15.422 4.8971L18.578 2.43958C16.4771 -0.258521 13.1914 -2 9.5 -2V2ZM18.578 4.8971C19.9537 3.13039 22.0943 2 24.5 2V-2C20.8086 -2 17.5229 -0.258521 15.422 2.43958L18.578 4.8971ZM24.5 2C28.6421 2 32 5.35786 32 9.5H36C36 3.14873 30.8513 -2 24.5 -2V2ZM32 9.5C32 11.2166 31.4258 12.7933 30.4578 14.0565L33.6329 16.4894C35.1171 14.5525 36 12.1265 36 9.5H32ZM30.3422 14.2244C29.94 14.8778 28.8992 16.004 27.3499 17.4428C25.8576 18.8286 24.0569 20.3577 22.3055 21.7901C20.5576 23.2194 18.877 24.5376 17.632 25.4994C17.01 25.9799 16.4979 26.3706 16.1419 26.6407C15.9639 26.7757 15.825 26.8805 15.731 26.9513C15.684 26.9866 15.6483 27.0135 15.6245 27.0314C15.6126 27.0403 15.6036 27.047 15.5978 27.0514C15.5949 27.0536 15.5927 27.0552 15.5913 27.0562C15.5907 27.0567 15.5902 27.0571 15.5899 27.0573C15.5897 27.0574 15.5897 27.0575 15.5896 27.0575C15.5896 27.0576 15.5896 27.0575 16.7875 28.6591C17.9853 30.2607 17.9855 30.2606 17.9856 30.2605C17.9858 30.2604 17.986 30.2602 17.9862 30.26C17.9867 30.2597 17.9874 30.2591 17.9883 30.2585C17.9901 30.2571 17.9927 30.2552 17.996 30.2527C18.0027 30.2477 18.0125 30.2404 18.0252 30.2308C18.0508 30.2117 18.0883 30.1835 18.1371 30.1467C18.2347 30.0732 18.3774 29.9655 18.5595 29.8274C18.9235 29.5512 19.445 29.1534 20.0774 28.6648C21.3413 27.6885 23.0527 26.3463 24.8377 24.8865C26.6191 23.4297 28.4921 21.8409 30.0719 20.3738C31.5947 18.9596 33.0243 17.4978 33.7485 16.3215L30.3422 14.2244ZM16.7875 28.6591C18.0003 27.0688 18.0003 27.0689 18.0003 27.0688C18.0002 27.0688 18.0001 27.0687 18 27.0686C17.9997 27.0683 17.9991 27.0679 17.9984 27.0673C17.9969 27.0662 17.9945 27.0644 17.9913 27.0619C17.9849 27.057 17.9751 27.0496 17.962 27.0396C17.9359 27.0196 17.8968 26.9896 17.8454 26.9501C17.7427 26.8712 17.5911 26.7545 17.3974 26.6045C17.0099 26.3045 16.4543 25.8717 15.784 25.3424C14.4422 24.2829 12.6468 22.8414 10.8247 21.3076C8.99673 19.7688 7.16873 18.1597 5.7493 16.7612C5.03787 16.0602 4.45679 15.4392 4.03716 14.9254C3.57099 14.3545 3.45779 14.098 3.45889 14.1015L-0.353504 15.3121C-0.107956 16.0854 0.438259 16.8422 0.938917 17.4553C1.48612 18.1255 2.17928 18.8591 2.94195 19.6105C4.4707 21.1167 6.39028 22.8033 8.24876 24.3677C10.1131 25.9371 11.9431 27.4063 13.3051 28.4817C13.9867 29.0199 14.5525 29.4606 14.9485 29.7673C15.1466 29.9206 15.3022 30.0405 15.4088 30.1224C15.4621 30.1633 15.5031 30.1947 15.531 30.2161C15.545 30.2268 15.5557 30.2349 15.563 30.2405C15.5666 30.2433 15.5694 30.2454 15.5714 30.2469C15.5724 30.2477 15.5731 30.2482 15.5736 30.2487C15.5739 30.2489 15.5742 30.2491 15.5743 30.2492C15.5745 30.2493 15.5746 30.2494 16.7875 28.6591Z" fill="#D89E9E" mask="url(#path-1-inside-1_2_111)"/>
</svg>
